<?xml version="1.0" encoding="UTF-8"?>
<svg id="Layer_1" xmlns="http://www.w3.org/2000/svg" version="1.1" viewBox="0 0 306.8 46.4">
  <!-- Generator: Adobe Illustrator 30.1.0, SVG Export Plug-In . SVG Version: 2.1.1 Build 136)  -->
  <defs>
    <style>
      .st0 {
        fill-rule: evenodd;
      }
    </style>
  </defs>
  <g>
    <path class="st0" d="M101.9,1.9l-3.8,7.4h12.4v27.7h9.8V9.3h10.7V1.9h-29Z"/>
    <path class="st0" d="M29.7,13c0-6.6-4.3-11.2-13.8-11.2H0v35.2h9.7v-12.9h5.2l6.2,12.9h10.9l-7.8-15.6c3.5-2,5.4-4.6,5.4-8.4h0ZM14.4,17.6h-4.7v-9.4h4.7c3.6,0,5.2,1.6,5.2,4.7s-1.5,4.7-5.2,4.7h0Z"/>
    <path class="st0" d="M90.9,17.6l8.1-15.7h-5.6c0,0-15.3,11-15.3,11V1.9h-9.7v35.1h9.7v-18.2l10.6-8.7-6.5,11.4h0s7.4,15.4,7.4,15.4h11l-9.6-19.4h0Z"/>
    <path class="st0" d="M48.7,1.2c-5,0-9.1,1.6-12.1,4.9-3,3.3-4.5,7.7-4.5,13.4h0c0,5.8,1.5,10.3,4.5,13.5,3,3.3,7.1,4.9,12.1,4.9s9.1-1.6,12-4.9c3-3.3,4.5-7.7,4.5-13.4h0c0-5.8-1.5-10.2-4.5-13.5-3-3.3-7-4.9-12-4.9ZM55.5,19.8c0,3.6-.6,6.3-1.9,8.4-1.2,2-2.9,3-4.9,3s-3.7-1-4.9-3c-1.2-2-1.9-4.8-1.9-8.4h0c0-3.6.6-6.4,1.9-8.4,1.2-2,2.9-3.1,4.9-3.1s3.7,1,4.9,3.1c1.2,2,1.9,4.8,1.9,8.4h0Z"/>
  </g>
  <g>
    <path d="M156.2,37.7c-3.6,0-6.6-.6-9.2-1.9-2.5-1.3-4.4-3.3-5.8-6s-2-6.1-2-10.3c0-6.2,1.5-10.7,4.5-13.7,3-3,7.2-4.5,12.5-4.5s5.6.5,7.9,1.5c2.3,1,4.2,2.5,5.5,4.4,1.3,2,2,4.5,2,7.5h-5.8c0-1.9-.4-3.5-1.2-4.7s-1.9-2.2-3.4-2.9-3.1-1-5-1-4.4.5-6.1,1.4c-1.7.9-2.9,2.4-3.7,4.2-.8,1.9-1.3,4.3-1.3,7.2v1.1c0,2.9.4,5.3,1.3,7.2.8,1.9,2.1,3.3,3.7,4.2,1.6.9,3.7,1.4,6.1,1.4s3.7-.3,5.2-.9c1.5-.6,2.6-1.6,3.4-2.8.8-1.3,1.2-2.8,1.2-4.7h5.6c0,3-.7,5.6-2,7.5-1.4,2-3.2,3.5-5.5,4.4-2.3,1-5,1.4-8,1.4Z"/>
    <path d="M182.6,37.7c-.9,0-1.8-.1-2.8-.3-1-.2-1.9-.6-2.8-1.1-.9-.5-1.6-1.3-2.1-2.3-.5-1-.8-2.2-.8-3.8s.4-3.4,1.3-4.6c.9-1.2,2.1-2.1,3.6-2.8,1.5-.7,3.4-1.2,5.5-1.4,2.1-.3,4.5-.4,7-.4v-2.7c0-.9-.1-1.7-.4-2.4-.3-.7-.8-1.2-1.6-1.6s-1.9-.6-3.3-.6-2.6.2-3.4.5c-.8.4-1.4.8-1.7,1.3-.3.5-.5,1.1-.5,1.7v.8h-5.1c0-.2,0-.3,0-.5v-.6c0-1.6.5-3,1.4-4.1.9-1.1,2.2-2,3.8-2.5,1.6-.6,3.5-.9,5.7-.9s4.3.3,5.8,1c1.6.7,2.7,1.6,3.5,2.8.8,1.2,1.2,2.7,1.2,4.5v13.7c0,.7.2,1.1.5,1.4.3.3.7.4,1.2.4h1.8v3.6c-.4.2-.9.3-1.5.5-.6.2-1.3.3-2.2.3s-1.7-.2-2.3-.5c-.6-.3-1.1-.8-1.5-1.4-.4-.6-.7-1.3-.8-2h-.3c-.6.8-1.4,1.5-2.2,2.1-.9.6-1.9,1.1-3,1.4-1.1.3-2.4.5-3.8.5ZM184.1,33.3c1.1,0,2-.2,2.9-.5.9-.3,1.7-.8,2.3-1.4.6-.6,1.2-1.3,1.5-2.2.4-.8.6-1.8.6-2.7v-1.8c-2.4,0-4.4.1-6.2.4-1.8.3-3.2.8-4.2,1.5-1,.7-1.5,1.8-1.5,3.1s.2,1.4.5,2c.3.5.9.9,1.5,1.2.7.3,1.5.4,2.4.4Z"/>
    <path d="M208.8,37.7c-1.5,0-2.7-.3-3.6-.9s-1.5-1.4-1.8-2.3-.5-1.9-.5-3V14.5h-3.4v-4.4h3.5l1-7.5h4.3v7.5h4.9v4.4h-4.9v16.4c0,.8.2,1.4.5,1.8s.9.6,1.7.6h2.7v3.6c-.3.1-.8.3-1.3.4-.5.1-1,.2-1.5.3-.5,0-1,.1-1.4.1Z"/>
    <path d="M223.4,37.7c-.9,0-1.8-.1-2.8-.3-1-.2-1.9-.6-2.8-1.1-.9-.5-1.6-1.3-2.1-2.3-.5-1-.8-2.2-.8-3.8s.4-3.4,1.3-4.6c.9-1.2,2.1-2.1,3.6-2.8,1.5-.7,3.4-1.2,5.5-1.4,2.1-.3,4.5-.4,7-.4v-2.7c0-.9-.1-1.7-.4-2.4-.3-.7-.8-1.2-1.6-1.6-.8-.4-1.9-.6-3.3-.6s-2.6.2-3.4.5c-.8.4-1.4.8-1.7,1.3-.3.5-.5,1.1-.5,1.7v.8h-5.1c0-.2,0-.3,0-.5v-.6c0-1.6.5-3,1.4-4.1.9-1.1,2.2-2,3.8-2.5,1.6-.6,3.5-.9,5.7-.9s4.3.3,5.8,1c1.6.7,2.7,1.6,3.5,2.8.8,1.2,1.2,2.7,1.2,4.5v13.7c0,.7.2,1.1.5,1.4.3.3.7.4,1.2.4h1.8v3.6c-.4.2-.9.3-1.5.5-.6.2-1.3.3-2.2.3s-1.7-.2-2.3-.5-1.1-.8-1.5-1.4c-.4-.6-.7-1.3-.8-2h-.3c-.6.8-1.4,1.5-2.2,2.1-.9.6-1.9,1.1-3,1.4-1.1.3-2.4.5-3.8.5ZM224.8,33.3c1.1,0,2-.2,2.9-.5.9-.3,1.7-.8,2.3-1.4.7-.6,1.2-1.3,1.5-2.2.4-.8.6-1.8.6-2.7v-1.8c-2.4,0-4.4.1-6.2.4-1.8.3-3.2.8-4.2,1.5-1,.7-1.5,1.8-1.5,3.1s.2,1.4.5,2c.3.5.9.9,1.5,1.2.7.3,1.5.4,2.4.4Z"/>
    <path d="M243.3,37.1V0h5.3v37.1h-5.3Z"/>
    <path d="M265.2,37.7c-2.8,0-5.2-.5-7.1-1.5-1.9-1-3.4-2.6-4.4-4.6-1-2.1-1.5-4.7-1.5-7.9s.5-5.9,1.5-8c1-2.1,2.4-3.6,4.4-4.6,1.9-1,4.3-1.5,7.1-1.5s5.3.5,7.2,1.5c1.9,1,3.4,2.5,4.3,4.6s1.5,4.7,1.5,8-.5,5.9-1.5,7.9-2.4,3.6-4.3,4.6c-1.9,1-4.3,1.5-7.2,1.5ZM265.2,33.3c1.7,0,3.1-.3,4.2-1,1.1-.7,1.9-1.7,2.4-3.1.5-1.4.8-3.1.8-5.2v-.9c0-2.1-.3-3.8-.8-5.2-.5-1.4-1.3-2.4-2.4-3-1.1-.7-2.5-1-4.2-1s-3.1.3-4.2,1c-1.1.7-1.9,1.7-2.4,3-.5,1.4-.8,3.1-.8,5.2v.9c0,2.1.3,3.8.8,5.2.5,1.4,1.3,2.4,2.4,3.1,1.1.7,2.5,1,4.2,1Z"/>
    <path d="M286,46.4c-1.2,0-2.4-.3-3.5-.8-1.1-.5-1.9-1.2-2.6-2.2-.7-1-1-2.1-1-3.5s.4-2.7,1.3-3.7,1.8-1.6,2.9-2.1c-.8-.4-1.5-.9-2-1.6s-.7-1.5-.7-2.5.5-2.3,1.4-3.1c.9-.8,2-1.3,3.2-1.5-1.2-.8-2.1-1.8-2.8-3-.7-1.2-1-2.5-1-4s.4-3.4,1.3-4.7c.9-1.3,2.1-2.3,3.8-3.1,1.7-.8,3.8-1.1,6.2-1.1s2.1,0,3,.2c.9.2,1.8.4,2.5.6,1.2-.6,2.1-1.4,2.6-2.2.5-.9.8-1.7.9-2.4h5.2c0,1.1-.2,2.1-.7,3-.5.9-1.1,1.7-1.9,2.3s-1.8,1-2.9,1.3c.9.8,1.5,1.7,1.9,2.7.4,1,.6,2.2.6,3.4,0,1.8-.4,3.3-1.2,4.7s-2.1,2.4-3.7,3.1c-1.7.8-3.7,1.1-6.1,1.1h-4.2c-.8,0-1.5.2-2,.5-.5.3-.7.9-.7,1.5s.2,1.1.7,1.4c.5.4,1.1.6,1.9.6h11.4c2,0,3.6.7,4.9,2,1.3,1.3,1.9,3,1.9,5s-.4,2.9-1.2,4.1c-.8,1.2-1.8,2.2-3.2,2.9-1.4.7-3,1.1-4.8,1.1h-11.6ZM287.8,42.5h9.8c.7,0,1.4-.1,1.9-.4.6-.3,1-.7,1.4-1.2s.5-1.1.5-1.7c0-1-.3-1.8-.9-2.4-.6-.6-1.4-.9-2.3-.9h-10.4c-1,0-1.8.3-2.4.9-.6.6-1,1.4-1,2.3s.3,1.7.9,2.3c.6.6,1.4.9,2.4.9ZM292.6,23.5c2,0,3.5-.5,4.5-1.4,1-.9,1.5-2.1,1.5-3.7s-.5-2.8-1.5-3.7c-1-.9-2.5-1.3-4.5-1.3s-3.5.4-4.5,1.3c-1,.9-1.5,2.1-1.5,3.7s.2,1.9.6,2.7c.4.8,1.1,1.4,2,1.8.9.4,2,.6,3.4.6Z"/>
  </g>
</svg>